<svg xmlns="http://www.w3.org/2000/svg" xmlns:svg="http://www.w3.org/2000/svg" id="svg30" width="1000" height="1000" version="1.1" xml:space="preserve" style="shape-rendering:geometricPrecision;text-rendering:geometricPrecision;image-rendering:optimizeQuality;fill-rule:evenodd;clip-rule:evenodd" viewBox="0 0 1000 1000"><defs id="defs4"><style id="style2" type="text/css">.str0,.str1,.str2{stroke:#000;stroke-width:20;stroke-miterlimit:22.9256}.str0{stroke-linecap:round;stroke-linejoin:round}.str1,.str2{stroke-linecap:square}.str2{stroke-linejoin:round}.fil0{fill:none;fill-rule:nonzero}</style></defs><g id="Layer_x0020_1"><metadata id="CorelCorpID_0Corel-Layer"/><g id="layer3"><g id="minigrid" transform="matrix(0.9911388,0,0,0.99114013,4.4306,4.429935)"><path id="rect6928" d="m 225.3,5.53 h 549.4 c 121.75,0 219.77,98.02 219.77,219.77 v 549.4 c 0,121.75 -98.02,219.77 -219.77,219.77 H 225.3 C 103.55,994.47 5.53,896.45 5.53,774.7 V 225.3 C 5.53,103.55 103.55,5.53 225.3,5.53 Z" class="fil0 str0"/><line id="path7689" x1="16.52" x2="983.48" y1="305.69" y2="305.69" class="fil0 str1"/><line id="path7691" x1="16.52" x2="983.48" y1="695.06" y2="695.06" class="fil0 str1"/><line id="path7693" x1="309.73" x2="309.73" y1="16.52" y2="983.48" class="fil0 str1"/><line id="path7695" x1="694.66" x2="694.66" y1="983.48" y2="16.52" class="fil0 str1"/><polygon id="path12281" points="373.14 609.86 500 390.14 626.86 609.86" class="fil0 str2"/></g></g></g></svg>